<svg id="visual" viewBox="0 0 1800 1020" width="1800" height="1020" xmlns="http://www.w3.org/2000/svg" xmlns:xlink="http://www.w3.org/1999/xlink" version="1.1"><rect x="0" y="0" width="1800" height="1020" fill="#06041f"></rect><path d="M0 676L257 698L514 736L771 623L1029 728L1286 695L1543 644L1800 652L1800 1021L1543 1021L1286 1021L1029 1021L771 1021L514 1021L257 1021L0 1021Z" fill="#1640d0"></path><path d="M0 767L257 788L514 735L771 766L1029 727L1286 788L1543 787L1800 784L1800 1021L1543 1021L1286 1021L1029 1021L771 1021L514 1021L257 1021L0 1021Z" fill="#006fe1"></path><path d="M0 745L257 794L514 774L771 773L1029 820L1286 746L1543 809L1800 788L1800 1021L1543 1021L1286 1021L1029 1021L771 1021L514 1021L257 1021L0 1021Z" fill="#0095e3"></path><path d="M0 867L257 838L514 901L771 832L1029 879L1286 875L1543 818L1800 864L1800 1021L1543 1021L1286 1021L1029 1021L771 1021L514 1021L257 1021L0 1021Z" fill="#00b3d8"></path><path d="M0 957L257 899L514 904L771 965L1029 912L1286 907L1543 915L1800 911L1800 1021L1543 1021L1286 1021L1029 1021L771 1021L514 1021L257 1021L0 1021Z" fill="#00c8ad"></path></svg>